<?xml version="1.0" encoding="UTF-8"?>
<!DOCTYPE svg PUBLIC "-//W3C//DTD SVG 1.1//EN" "http://www.w3.org/Graphics/SVG/1.1/DTD/svg11.dtd">
<svg xmlns="http://www.w3.org/2000/svg" version="1.1" width="500px" height="500px" style="shape-rendering:geometricPrecision; text-rendering:geometricPrecision; image-rendering:optimizeQuality; fill-rule:evenodd; clip-rule:evenodd" xmlns:xlink="http://www.w3.org/1999/xlink">
<g><path style="opacity:1" fill="#000000" d="M -0.5,-0.5 C 166.167,-0.5 332.833,-0.5 499.5,-0.5C 499.5,166.167 499.5,332.833 499.5,499.5C 332.833,499.5 166.167,499.5 -0.5,499.5C -0.5,332.833 -0.5,166.167 -0.5,-0.5 Z"/></g>
<g><path style="opacity:1" fill="#d4d4d4" d="M 192.5,105.5 C 210.941,115.556 229.274,125.889 247.5,136.5C 248.5,162.491 248.833,188.491 248.5,214.5C 247.167,214.5 245.833,214.5 244.5,214.5C 244.667,189.831 244.5,165.164 244,140.5C 228.746,131.121 213.246,122.121 197.5,113.5C 196.667,135.492 196.167,157.492 196,179.5C 195,180.167 194,180.833 193,181.5C 192.5,156.169 192.333,130.836 192.5,105.5 Z"/></g>
<g><path style="opacity:1" fill="#c2af31" d="M 264.5,158.5 C 263.503,180.327 263.169,202.327 263.5,224.5C 251.988,224.172 240.654,224.505 229.5,225.5C 229.5,245.167 229.5,264.833 229.5,284.5C 234.305,285.487 239.305,285.821 244.5,285.5C 244.5,267.167 244.5,248.833 244.5,230.5C 245.833,230.5 247.167,230.5 248.5,230.5C 248.5,250.167 248.5,269.833 248.5,289.5C 240.5,289.5 232.5,289.5 224.5,289.5C 224.5,266.5 224.5,243.5 224.5,220.5C 236.167,220.5 247.833,220.5 259.5,220.5C 259.167,198.823 259.5,177.156 260.5,155.5C 272.129,149.033 283.629,142.366 295,135.5C 295.667,150.167 295.667,164.833 295,179.5C 293.846,180.743 292.512,181.743 291,182.5C 290.833,169.82 290.333,157.154 289.5,144.5C 281.15,149.195 272.816,153.861 264.5,158.5 Z"/></g>
<g><path style="opacity:1" fill="#c8c8c8" d="M 204.5,140.5 C 206.167,140.5 207.833,140.5 209.5,140.5C 209.5,142.167 209.5,143.833 209.5,145.5C 207.833,145.5 206.167,145.5 204.5,145.5C 204.5,143.833 204.5,142.167 204.5,140.5 Z"/></g>
<g><path style="opacity:1" fill="#c5c5c5" d="M 217.5,140.5 C 219.167,140.5 220.833,140.5 222.5,140.5C 222.5,142.167 222.5,143.833 222.5,145.5C 220.833,145.5 219.167,145.5 217.5,145.5C 217.5,143.833 217.5,142.167 217.5,140.5 Z"/></g>
<g><path style="opacity:1" fill="#c5c5c5" d="M 228.5,140.5 C 230.167,140.5 231.833,140.5 233.5,140.5C 233.5,142.167 233.5,143.833 233.5,145.5C 231.833,145.5 230.167,145.5 228.5,145.5C 228.5,143.833 228.5,142.167 228.5,140.5 Z"/></g>
<g><path style="opacity:1" fill="#c5c5c5" d="M 204.5,150.5 C 206.167,150.5 207.833,150.5 209.5,150.5C 209.5,152.167 209.5,153.833 209.5,155.5C 207.833,155.5 206.167,155.5 204.5,155.5C 204.5,153.833 204.5,152.167 204.5,150.5 Z"/></g>
<g><path style="opacity:1" fill="#c3c3c3" d="M 217.5,150.5 C 219.167,150.5 220.833,150.5 222.5,150.5C 222.5,152.167 222.5,153.833 222.5,155.5C 220.833,155.5 219.167,155.5 217.5,155.5C 217.5,153.833 217.5,152.167 217.5,150.5 Z"/></g>
<g><path style="opacity:1" fill="#c4c4c4" d="M 228.5,150.5 C 230.167,150.5 231.833,150.5 233.5,150.5C 233.5,152.167 233.5,153.833 233.5,155.5C 231.833,155.5 230.167,155.5 228.5,155.5C 228.5,153.833 228.5,152.167 228.5,150.5 Z"/></g>
<g><path style="opacity:1" fill="#b8a62f" d="M 279.5,155.5 C 281.167,155.5 282.833,155.5 284.5,155.5C 284.5,157.833 284.5,160.167 284.5,162.5C 282.833,162.5 281.167,162.5 279.5,162.5C 279.5,160.167 279.5,157.833 279.5,155.5 Z"/></g>
<g><path style="opacity:1" fill="#cab733" d="M 273.5,159.5 C 273.5,160.5 273.5,161.5 273.5,162.5C 272.167,162.5 270.833,162.5 269.5,162.5C 269.5,161.5 269.5,160.5 269.5,159.5C 270.833,159.5 272.167,159.5 273.5,159.5 Z"/></g>
<g><path style="opacity:1" fill="#a1a1a1" d="M 204.5,159.5 C 206.167,159.5 207.833,159.5 209.5,159.5C 209.5,161.167 209.5,162.833 209.5,164.5C 207.833,164.5 206.167,164.5 204.5,164.5C 204.5,162.833 204.5,161.167 204.5,159.5 Z"/></g>
<g><path style="opacity:1" fill="#bbbbbb" d="M 217.5,159.5 C 219.167,159.5 220.833,159.5 222.5,159.5C 222.5,161.167 222.5,162.833 222.5,164.5C 220.833,164.5 219.167,164.5 217.5,164.5C 217.5,162.833 217.5,161.167 217.5,159.5 Z"/></g>
<g><path style="opacity:1" fill="#bbbbbb" d="M 228.5,159.5 C 230.167,159.5 231.833,159.5 233.5,159.5C 233.5,161.167 233.5,162.833 233.5,164.5C 231.833,164.5 230.167,164.5 228.5,164.5C 228.5,162.833 228.5,161.167 228.5,159.5 Z"/></g>
<g><path style="opacity:1" fill="#6b601b" d="M 273.5,159.5 C 274.434,160.568 274.768,161.901 274.5,163.5C 272.585,163.784 270.919,163.451 269.5,162.5C 270.833,162.5 272.167,162.5 273.5,162.5C 273.5,161.5 273.5,160.5 273.5,159.5 Z"/></g>
<g><path style="opacity:1" fill="#cacaca" d="M 335.5,284.5 C 352.992,285.497 370.659,285.83 388.5,285.5C 388.5,286.833 388.5,288.167 388.5,289.5C 369.167,289.5 349.833,289.5 330.5,289.5C 330.667,250.165 330.5,210.832 330,171.5C 311.169,182.248 292.502,193.248 274,204.5C 273.5,231.165 273.333,257.831 273.5,284.5C 279.5,284.5 285.5,284.5 291.5,284.5C 291.167,256.159 291.5,227.825 292.5,199.5C 293.5,198.833 294.5,198.167 295.5,197.5C 296.5,228.159 296.833,258.826 296.5,289.5C 287.249,289.818 278.083,289.485 269,288.5C 268.333,259.5 268.333,230.5 269,201.5C 290.751,188.707 312.585,176.04 334.5,163.5C 335.5,203.828 335.833,244.161 335.5,284.5 Z"/></g>
<g><path style="opacity:1" fill="#5b5217" d="M 284.5,167.5 C 283.167,167.5 281.833,167.5 280.5,167.5C 280.5,169.167 280.5,170.833 280.5,172.5C 279.539,170.735 279.205,168.735 279.5,166.5C 281.415,166.216 283.081,166.549 284.5,167.5 Z"/></g>
<g><path style="opacity:1" fill="#cab733" d="M 284.5,167.5 C 284.5,169.167 284.5,170.833 284.5,172.5C 283.167,172.5 281.833,172.5 280.5,172.5C 280.5,170.833 280.5,169.167 280.5,167.5C 281.833,167.5 283.167,167.5 284.5,167.5 Z"/></g>
<g><path style="opacity:1" fill="#b9a62f" d="M 269.5,167.5 C 271.167,167.5 272.833,167.5 274.5,167.5C 274.5,169.167 274.5,170.833 274.5,172.5C 272.833,172.5 271.167,172.5 269.5,172.5C 269.5,170.833 269.5,169.167 269.5,167.5 Z"/></g>
<g><path style="opacity:1" fill="#d8d9d8" d="M 204.5,169.5 C 205.833,169.5 207.167,169.5 208.5,169.5C 208.5,170.833 208.5,172.167 208.5,173.5C 207.167,173.5 205.833,173.5 204.5,173.5C 204.5,172.167 204.5,170.833 204.5,169.5 Z"/></g>
<g><path style="opacity:1" fill="#6f6f6f" d="M 204.5,169.5 C 205.919,168.549 207.585,168.216 209.5,168.5C 209.5,170.5 209.5,172.5 209.5,174.5C 207.585,174.784 205.919,174.451 204.5,173.5C 205.833,173.5 207.167,173.5 208.5,173.5C 208.5,172.167 208.5,170.833 208.5,169.5C 207.167,169.5 205.833,169.5 204.5,169.5 Z"/></g>
<g><path style="opacity:1" fill="#aeaeae" d="M 217.5,168.5 C 222.159,168.015 223.492,169.848 221.5,174C 220.207,174.49 218.873,174.657 217.5,174.5C 217.5,172.5 217.5,170.5 217.5,168.5 Z"/></g>
<g><path style="opacity:1" fill="#aeaeae" d="M 229.5,168.5 C 230.833,168.5 232.167,168.5 233.5,168.5C 233.5,170.5 233.5,172.5 233.5,174.5C 228.74,174.799 227.406,172.799 229.5,168.5 Z"/></g>
<g><path style="opacity:1" fill="#bfac31" d="M 269.5,177.5 C 271.167,177.5 272.833,177.5 274.5,177.5C 274.5,179.167 274.5,180.833 274.5,182.5C 272.833,182.5 271.167,182.5 269.5,182.5C 269.5,180.833 269.5,179.167 269.5,177.5 Z"/></g>
<g><path style="opacity:1" fill="#b8a52f" d="M 279.5,177.5 C 281.167,177.5 282.833,177.5 284.5,177.5C 284.5,179.167 284.5,180.833 284.5,182.5C 282.833,182.5 281.167,182.5 279.5,182.5C 279.5,180.833 279.5,179.167 279.5,177.5 Z"/></g>
<g><path style="opacity:1" fill="#bba930" d="M 209.5,185.5 C 211.493,219.817 212.16,254.484 211.5,289.5C 177.833,289.5 144.167,289.5 110.5,289.5C 110.5,287.833 110.5,286.167 110.5,284.5C 142.5,284.5 174.5,284.5 206.5,284.5C 206.833,254.159 206.5,223.826 205.5,193.5C 193.5,200.5 181.5,207.5 169.5,214.5C 168.5,235.823 168.167,257.156 168.5,278.5C 166.833,278.5 165.167,278.5 163.5,278.5C 163.167,256.157 163.5,233.823 164.5,211.5C 179.726,203.059 194.726,194.392 209.5,185.5 Z"/></g>
<g><path style="opacity:1" fill="#bababa" d="M 302.5,191.5 C 304.167,191.5 305.833,191.5 307.5,191.5C 307.5,193.5 307.5,195.5 307.5,197.5C 305.833,197.5 304.167,197.5 302.5,197.5C 302.5,195.5 302.5,193.5 302.5,191.5 Z"/></g>
<g><path style="opacity:1" fill="#717171" d="M 316.5,192.5 C 315.167,192.5 313.833,192.5 312.5,192.5C 312.5,193.833 312.5,195.167 312.5,196.5C 313.833,196.5 315.167,196.5 316.5,196.5C 315.081,197.451 313.415,197.784 311.5,197.5C 311.5,195.5 311.5,193.5 311.5,191.5C 313.415,191.216 315.081,191.549 316.5,192.5 Z"/></g>
<g><path style="opacity:1" fill="#d8d9d8" d="M 316.5,192.5 C 316.5,193.833 316.5,195.167 316.5,196.5C 315.167,196.5 313.833,196.5 312.5,196.5C 312.5,195.167 312.5,193.833 312.5,192.5C 313.833,192.5 315.167,192.5 316.5,192.5 Z"/></g>
<g><path style="opacity:1" fill="#aeaeae" d="M 321.5,191.5 C 326.159,191.015 327.492,192.848 325.5,197C 324.207,197.49 322.873,197.657 321.5,197.5C 321.5,195.5 321.5,193.5 321.5,191.5 Z"/></g>
<g><path style="opacity:1" fill="#c7c7c7" d="M 302.5,201.5 C 304.167,201.5 305.833,201.5 307.5,201.5C 307.5,203.167 307.5,204.833 307.5,206.5C 305.833,206.5 304.167,206.5 302.5,206.5C 302.5,204.833 302.5,203.167 302.5,201.5 Z"/></g>
<g><path style="opacity:1" fill="#c6c6c6" d="M 311.5,201.5 C 313.167,201.5 314.833,201.5 316.5,201.5C 316.5,203.167 316.5,204.833 316.5,206.5C 314.833,206.5 313.167,206.5 311.5,206.5C 311.5,204.833 311.5,203.167 311.5,201.5 Z"/></g>
<g><path style="opacity:1" fill="#c4c4c4" d="M 321.5,201.5 C 323.167,201.5 324.833,201.5 326.5,201.5C 326.5,203.167 326.5,204.833 326.5,206.5C 324.833,206.5 323.167,206.5 321.5,206.5C 321.5,204.833 321.5,203.167 321.5,201.5 Z"/></g>
<g><path style="opacity:1" fill="#c2c2c2" d="M 302.5,210.5 C 304.167,210.5 305.833,210.5 307.5,210.5C 307.5,212.167 307.5,213.833 307.5,215.5C 305.833,215.5 304.167,215.5 302.5,215.5C 302.5,213.833 302.5,212.167 302.5,210.5 Z"/></g>
<g><path style="opacity:1" fill="#757575" d="M 316.5,211.5 C 315.167,211.5 313.833,211.5 312.5,211.5C 312.5,212.833 312.5,214.167 312.5,215.5C 311.549,214.081 311.216,212.415 311.5,210.5C 313.415,210.216 315.081,210.549 316.5,211.5 Z"/></g>
<g><path style="opacity:1" fill="#d8d9d8" d="M 316.5,211.5 C 316.5,212.833 316.5,214.167 316.5,215.5C 315.167,215.5 313.833,215.5 312.5,215.5C 312.5,214.167 312.5,212.833 312.5,211.5C 313.833,211.5 315.167,211.5 316.5,211.5 Z"/></g>
<g><path style="opacity:1" fill="#b8b8b8" d="M 321.5,210.5 C 325.5,209.833 327.167,211.5 326.5,215.5C 324.833,215.5 323.167,215.5 321.5,215.5C 321.5,213.833 321.5,212.167 321.5,210.5 Z"/></g>
<g><path style="opacity:1" fill="#b4a22e" d="M 179.5,215.5 C 181.167,215.5 182.833,215.5 184.5,215.5C 184.5,217.167 184.5,218.833 184.5,220.5C 182.833,220.5 181.167,220.5 179.5,220.5C 179.5,218.833 179.5,217.167 179.5,215.5 Z"/></g>
<g><path style="opacity:1" fill="#af9e2d" d="M 193.5,215.5 C 195.167,215.5 196.833,215.5 198.5,215.5C 198.5,217.167 198.5,218.833 198.5,220.5C 196.833,220.5 195.167,220.5 193.5,220.5C 193.5,218.833 193.5,217.167 193.5,215.5 Z"/></g>
<g><path style="opacity:1" fill="#c7c7c7" d="M 302.5,220.5 C 304.167,220.5 305.833,220.5 307.5,220.5C 307.5,222.167 307.5,223.833 307.5,225.5C 305.833,225.5 304.167,225.5 302.5,225.5C 302.5,223.833 302.5,222.167 302.5,220.5 Z"/></g>
<g><path style="opacity:1" fill="#c6c6c6" d="M 311.5,220.5 C 313.167,220.5 314.833,220.5 316.5,220.5C 316.5,222.167 316.5,223.833 316.5,225.5C 314.833,225.5 313.167,225.5 311.5,225.5C 311.5,223.833 311.5,222.167 311.5,220.5 Z"/></g>
<g><path style="opacity:1" fill="#c4c4c4" d="M 321.5,220.5 C 323.167,220.5 324.833,220.5 326.5,220.5C 326.5,222.167 326.5,223.833 326.5,225.5C 324.833,225.5 323.167,225.5 321.5,225.5C 321.5,223.833 321.5,222.167 321.5,220.5 Z"/></g>
<g><path style="opacity:1" fill="#7b6f1f" d="M 264.5,158.5 C 264.5,180.833 264.5,203.167 264.5,225.5C 252.833,225.5 241.167,225.5 229.5,225.5C 240.654,224.505 251.988,224.172 263.5,224.5C 263.169,202.327 263.503,180.327 264.5,158.5 Z"/></g>
<g><path style="opacity:1" fill="#7c701f" d="M 184.5,225.5 C 183.167,225.5 181.833,225.5 180.5,225.5C 180.5,226.833 180.5,228.167 180.5,229.5C 179.549,228.081 179.216,226.415 179.5,224.5C 181.415,224.216 183.081,224.549 184.5,225.5 Z"/></g>
<g><path style="opacity:1" fill="#cab634" d="M 184.5,225.5 C 184.5,226.833 184.5,228.167 184.5,229.5C 183.167,229.5 181.833,229.5 180.5,229.5C 180.5,228.167 180.5,226.833 180.5,225.5C 181.833,225.5 183.167,225.5 184.5,225.5 Z"/></g>
<g><path style="opacity:1" fill="#cab733" d="M 193.5,225.5 C 194.833,225.5 196.167,225.5 197.5,225.5C 197.5,226.833 197.5,228.167 197.5,229.5C 197.5,228.167 197.5,226.833 197.5,225.5C 196.167,225.5 194.833,225.5 193.5,225.5 Z"/></g>
<g><path style="opacity:1" fill="#5e5518" d="M 193.5,225.5 C 194.919,224.549 196.585,224.216 198.5,224.5C 198.784,226.415 198.451,228.081 197.5,229.5C 197.5,228.167 197.5,226.833 197.5,225.5C 196.167,225.5 194.833,225.5 193.5,225.5 Z"/></g>
<g><path style="opacity:1" fill="#c7c7c7" d="M 302.5,229.5 C 304.167,229.5 305.833,229.5 307.5,229.5C 307.5,231.5 307.5,233.5 307.5,235.5C 305.833,235.5 304.167,235.5 302.5,235.5C 302.5,233.5 302.5,231.5 302.5,229.5 Z"/></g>
<g><path style="opacity:1" fill="#c3c3c3" d="M 311.5,229.5 C 313.167,229.5 314.833,229.5 316.5,229.5C 316.5,231.5 316.5,233.5 316.5,235.5C 314.833,235.5 313.167,235.5 311.5,235.5C 311.5,233.5 311.5,231.5 311.5,229.5 Z"/></g>
<g><path style="opacity:1" fill="#bebebe" d="M 321.5,229.5 C 323.167,229.5 324.833,229.5 326.5,229.5C 326.5,231.5 326.5,233.5 326.5,235.5C 324.833,235.5 323.167,235.5 321.5,235.5C 321.5,233.5 321.5,231.5 321.5,229.5 Z"/></g>
<g><path style="opacity:1" fill="#595016" d="M 244.5,230.5 C 244.5,248.833 244.5,267.167 244.5,285.5C 239.305,285.821 234.305,285.487 229.5,284.5C 234.167,284.5 238.833,284.5 243.5,284.5C 243.17,266.326 243.503,248.326 244.5,230.5 Z"/></g>
<g><path style="opacity:1" fill="#cab634" d="M 180.5,234.5 C 181.833,234.5 183.167,234.5 184.5,234.5C 184.5,235.833 184.5,237.167 184.5,238.5C 184.5,237.167 184.5,235.833 184.5,234.5C 183.167,234.5 181.833,234.5 180.5,234.5 Z"/></g>
<g><path style="opacity:1" fill="#cab733" d="M 197.5,234.5 C 197.5,235.833 197.5,237.167 197.5,238.5C 196.167,238.5 194.833,238.5 193.5,238.5C 193.5,237.167 193.5,235.833 193.5,234.5C 194.833,234.5 196.167,234.5 197.5,234.5 Z"/></g>
<g><path style="opacity:1" fill="#6d631c" d="M 180.5,234.5 C 180.5,235.833 180.5,237.167 180.5,238.5C 181.833,238.5 183.167,238.5 184.5,238.5C 183.081,239.451 181.415,239.784 179.5,239.5C 179.216,237.585 179.549,235.919 180.5,234.5 Z"/></g>
<g><path style="opacity:1" fill="#625818" d="M 197.5,234.5 C 198.451,235.919 198.784,237.585 198.5,239.5C 196.585,239.784 194.919,239.451 193.5,238.5C 194.833,238.5 196.167,238.5 197.5,238.5C 197.5,237.167 197.5,235.833 197.5,234.5 Z"/></g>
<g><path style="opacity:1" fill="#cdcdcd" d="M 302.5,240.5 C 304.167,240.5 305.833,240.5 307.5,240.5C 307.5,242.5 307.5,244.5 307.5,246.5C 305.833,246.5 304.167,246.5 302.5,246.5C 302.5,244.5 302.5,242.5 302.5,240.5 Z"/></g>
<g><path style="opacity:1" fill="#c9c9c9" d="M 311.5,240.5 C 313.167,240.5 314.833,240.5 316.5,240.5C 316.5,242.5 316.5,244.5 316.5,246.5C 314.833,246.5 313.167,246.5 311.5,246.5C 311.5,244.5 311.5,242.5 311.5,240.5 Z"/></g>
<g><path style="opacity:1" fill="#c5c5c5" d="M 321.5,240.5 C 323.167,240.5 324.833,240.5 326.5,240.5C 326.5,242.5 326.5,244.5 326.5,246.5C 324.833,246.5 323.167,246.5 321.5,246.5C 321.5,244.5 321.5,242.5 321.5,240.5 Z"/></g>
<g><path style="opacity:1" fill="#b8a62f" d="M 179.5,243.5 C 181.167,243.5 182.833,243.5 184.5,243.5C 184.5,244.833 184.5,246.167 184.5,247.5C 182.833,247.5 181.167,247.5 179.5,247.5C 179.5,246.167 179.5,244.833 179.5,243.5 Z"/></g>
<g><path style="opacity:1" fill="#af9e2c" d="M 193.5,243.5 C 195.167,243.5 196.833,243.5 198.5,243.5C 198.5,244.833 198.5,246.167 198.5,247.5C 196.833,247.5 195.167,247.5 193.5,247.5C 193.5,246.167 193.5,244.833 193.5,243.5 Z"/></g>
<g><path style="opacity:1" fill="#cab634" d="M 180.5,252.5 C 181.833,252.5 183.167,252.5 184.5,252.5C 184.5,253.833 184.5,255.167 184.5,256.5C 184.5,255.167 184.5,253.833 184.5,252.5C 183.167,252.5 181.833,252.5 180.5,252.5 Z"/></g>
<g><path style="opacity:1" fill="#cab733" d="M 197.5,252.5 C 197.5,253.833 197.5,255.167 197.5,256.5C 196.167,256.5 194.833,256.5 193.5,256.5C 193.5,255.167 193.5,253.833 193.5,252.5C 194.833,252.5 196.167,252.5 197.5,252.5 Z"/></g>
<g><path style="opacity:1" fill="#d7d7d7" d="M 306.5,252.5 C 306.5,253.833 306.5,255.167 306.5,256.5C 305.167,256.5 303.833,256.5 302.5,256.5C 302.5,255.167 302.5,253.833 302.5,252.5C 303.833,252.5 305.167,252.5 306.5,252.5 Z"/></g>
<g><path style="opacity:1" fill="#d8d9d8" d="M 312.5,252.5 C 313.833,252.5 315.167,252.5 316.5,252.5C 316.5,253.833 316.5,255.167 316.5,256.5C 316.5,255.167 316.5,253.833 316.5,252.5C 315.167,252.5 313.833,252.5 312.5,252.5 Z"/></g>
<g><path style="opacity:1" fill="#b8b8b8" d="M 321.5,252.5 C 323.167,252.5 324.833,252.5 326.5,252.5C 327.167,256.5 325.5,258.167 321.5,257.5C 321.5,255.833 321.5,254.167 321.5,252.5 Z"/></g>
<g><path style="opacity:1" fill="#6d631c" d="M 180.5,252.5 C 180.5,253.833 180.5,255.167 180.5,256.5C 181.833,256.5 183.167,256.5 184.5,256.5C 183.081,257.451 181.415,257.784 179.5,257.5C 179.216,255.585 179.549,253.919 180.5,252.5 Z"/></g>
<g><path style="opacity:1" fill="#625818" d="M 197.5,252.5 C 198.451,253.919 198.784,255.585 198.5,257.5C 196.585,257.784 194.919,257.451 193.5,256.5C 194.833,256.5 196.167,256.5 197.5,256.5C 197.5,255.167 197.5,253.833 197.5,252.5 Z"/></g>
<g><path style="opacity:1" fill="#777777" d="M 306.5,252.5 C 307.451,253.919 307.784,255.585 307.5,257.5C 305.585,257.784 303.919,257.451 302.5,256.5C 303.833,256.5 305.167,256.5 306.5,256.5C 306.5,255.167 306.5,253.833 306.5,252.5 Z"/></g>
<g><path style="opacity:1" fill="#6d6d6d" d="M 312.5,252.5 C 312.5,253.833 312.5,255.167 312.5,256.5C 313.833,256.5 315.167,256.5 316.5,256.5C 315.081,257.451 313.415,257.784 311.5,257.5C 311.216,255.585 311.549,253.919 312.5,252.5 Z"/></g>
<g><path style="opacity:1" fill="#b4a22e" d="M 179.5,261.5 C 181.167,261.5 182.833,261.5 184.5,261.5C 184.5,263.167 184.5,264.833 184.5,266.5C 182.833,266.5 181.167,266.5 179.5,266.5C 179.5,264.833 179.5,263.167 179.5,261.5 Z"/></g>
<g><path style="opacity:1" fill="#af9e2d" d="M 193.5,261.5 C 195.167,261.5 196.833,261.5 198.5,261.5C 198.5,263.167 198.5,264.833 198.5,266.5C 196.833,266.5 195.167,266.5 193.5,266.5C 193.5,264.833 193.5,263.167 193.5,261.5 Z"/></g>
<g><path style="opacity:1" fill="#c7c7c7" d="M 302.5,261.5 C 304.167,261.5 305.833,261.5 307.5,261.5C 307.5,263.5 307.5,265.5 307.5,267.5C 305.833,267.5 304.167,267.5 302.5,267.5C 302.5,265.5 302.5,263.5 302.5,261.5 Z"/></g>
<g><path style="opacity:1" fill="#c3c3c3" d="M 311.5,261.5 C 313.167,261.5 314.833,261.5 316.5,261.5C 316.5,263.5 316.5,265.5 316.5,267.5C 314.833,267.5 313.167,267.5 311.5,267.5C 311.5,265.5 311.5,263.5 311.5,261.5 Z"/></g>
<g><path style="opacity:1" fill="#bebebe" d="M 321.5,261.5 C 323.167,261.5 324.833,261.5 326.5,261.5C 326.5,263.5 326.5,265.5 326.5,267.5C 324.833,267.5 323.167,267.5 321.5,267.5C 321.5,265.5 321.5,263.5 321.5,261.5 Z"/></g>
<g><path style="opacity:1" fill="#c8c8c8" d="M 302.5,272.5 C 304.167,272.5 305.833,272.5 307.5,272.5C 307.5,274.5 307.5,276.5 307.5,278.5C 305.833,278.5 304.167,278.5 302.5,278.5C 302.5,276.5 302.5,274.5 302.5,272.5 Z"/></g>
<g><path style="opacity:1" fill="#c7c7c7" d="M 311.5,272.5 C 313.167,272.5 314.833,272.5 316.5,272.5C 316.5,274.5 316.5,276.5 316.5,278.5C 314.833,278.5 313.167,278.5 311.5,278.5C 311.5,276.5 311.5,274.5 311.5,272.5 Z"/></g>
<g><path style="opacity:1" fill="#c5c5c5" d="M 321.5,272.5 C 323.167,272.5 324.833,272.5 326.5,272.5C 326.5,274.5 326.5,276.5 326.5,278.5C 324.833,278.5 323.167,278.5 321.5,278.5C 321.5,276.5 321.5,274.5 321.5,272.5 Z"/></g>
<g><path style="opacity:1" fill="#6c6c6c" d="M 335.5,284.5 C 353.5,284.5 371.5,284.5 389.5,284.5C 389.784,286.415 389.451,288.081 388.5,289.5C 388.5,288.167 388.5,286.833 388.5,285.5C 370.659,285.83 352.992,285.497 335.5,284.5 Z"/></g>
<g><path style="opacity:1" fill="#737373" d="M 94.5,312.5 C 89.1667,312.5 83.8333,312.5 78.5,312.5C 78.5,325.833 78.5,339.167 78.5,352.5C 77.5043,339.01 77.171,325.344 77.5,311.5C 83.358,311.178 89.0247,311.511 94.5,312.5 Z"/></g>
<g><path style="opacity:1" fill="#d3d3d3" d="M 94.5,312.5 C 102.872,313.567 106.039,318.234 104,326.5C 103.215,328.286 102.049,329.786 100.5,331C 106.109,334.277 107.942,339.11 106,345.5C 104.332,349.165 101.499,351.332 97.5,352C 91.1754,352.5 84.8421,352.666 78.5,352.5C 78.5,339.167 78.5,325.833 78.5,312.5C 83.8333,312.5 89.1667,312.5 94.5,312.5 Z"/></g>
<g><path style="opacity:1" fill="#d4d4d4" d="M 114.5,312.5 C 123.833,312.5 133.167,312.5 142.5,312.5C 142.5,314.5 142.5,316.5 142.5,318.5C 135.5,318.5 128.5,318.5 121.5,318.5C 121.5,321.833 121.5,325.167 121.5,328.5C 127.833,328.5 134.167,328.5 140.5,328.5C 140.5,330.833 140.5,333.167 140.5,335.5C 134.167,335.5 127.833,335.5 121.5,335.5C 121.5,341.167 121.5,346.833 121.5,352.5C 119.167,352.5 116.833,352.5 114.5,352.5C 114.5,339.167 114.5,325.833 114.5,312.5 Z"/></g>
<g><path style="opacity:1" fill="#d2d2d2" d="M 160.5,312.5 C 162.792,312.244 164.959,312.577 167,313.5C 172.069,326.207 177.236,338.874 182.5,351.5C 179.833,352.833 177.167,352.833 174.5,351.5C 173.593,348.943 172.593,346.443 171.5,344C 166.177,343.501 160.844,343.334 155.5,343.5C 154.539,346.426 153.873,349.426 153.5,352.5C 150.482,352.665 147.482,352.498 144.5,352C 150.129,338.946 155.462,325.78 160.5,312.5 Z"/></g>
<g><path style="opacity:1" fill="#cfcfcf" d="M 282.5,323.5 C 284.265,324.461 286.265,324.795 288.5,324.5C 288.5,326.167 288.5,327.833 288.5,329.5C 286.167,329.5 283.833,329.5 281.5,329.5C 281.179,334.695 281.513,339.695 282.5,344.5C 284.193,346.766 286.36,347.1 289,345.5C 289.957,348.379 289.457,350.879 287.5,353C 281.349,354.471 277.349,352.304 275.5,346.5C 275.5,340.833 275.5,335.167 275.5,329.5C 273.833,329.5 272.167,329.5 270.5,329.5C 270.5,327.833 270.5,326.167 270.5,324.5C 272.167,324.5 273.833,324.5 275.5,324.5C 275.5,321.833 275.5,319.167 275.5,316.5C 277.471,315.177 279.471,313.844 281.5,312.5C 282.489,316.107 282.823,319.774 282.5,323.5 Z"/></g>
<g><path style="opacity:1" fill="#cfcfcf" d="M 417.5,323.5 C 419.265,324.461 421.265,324.795 423.5,324.5C 423.5,326.167 423.5,327.833 423.5,329.5C 421.167,329.5 418.833,329.5 416.5,329.5C 416.179,334.695 416.513,339.695 417.5,344.5C 419.193,346.766 421.36,347.1 424,345.5C 424.957,348.379 424.457,350.879 422.5,353C 416.349,354.471 412.349,352.304 410.5,346.5C 410.5,340.833 410.5,335.167 410.5,329.5C 408.833,329.5 407.167,329.5 405.5,329.5C 405.5,327.833 405.5,326.167 405.5,324.5C 407.167,324.5 408.833,324.5 410.5,324.5C 410.5,321.833 410.5,319.167 410.5,316.5C 412.471,315.177 414.471,313.844 416.5,312.5C 417.489,316.107 417.823,319.774 417.5,323.5 Z"/></g>
<g><path style="opacity:1" fill="#0b0b0b" d="M 85.5,318.5 C 89.5839,318.043 93.4172,318.71 97,320.5C 98.2121,323.834 97.3788,326.334 94.5,328C 91.5184,328.498 88.5184,328.665 85.5,328.5C 85.5,325.167 85.5,321.833 85.5,318.5 Z"/></g>
<g><path style="opacity:1" fill="#d3d3d3" d="M 194.5,350.5 C 193.499,354.396 193.166,359.063 193.5,364.5C 191.5,364.5 189.5,364.5 187.5,364.5C 187.5,351.167 187.5,337.833 187.5,324.5C 190.144,324.16 192.477,324.827 194.5,326.5C 195.107,326.376 195.44,326.043 195.5,325.5C 207.063,321.184 213.397,325.35 214.5,338C 214.315,346.507 210.148,351.674 202,353.5C 199.171,353.172 196.671,352.172 194.5,350.5 Z"/></g>
<g><path style="opacity:1" fill="#cfcfcf" d="M 226.5,323.5 C 231.951,322.779 236.785,324.112 241,327.5C 241.667,328.833 242.333,330.167 243,331.5C 243.5,338.492 243.666,345.492 243.5,352.5C 241.5,352.5 239.5,352.5 237.5,352.5C 237.657,351.127 237.49,349.793 237,348.5C 231.035,355.065 225.035,355.065 219,348.5C 216.378,342.901 217.878,338.735 223.5,336C 227.821,335.501 232.154,335.334 236.5,335.5C 233.736,328.251 229.569,327.584 224,333.5C 222.846,332.257 221.512,331.257 220,330.5C 220.892,327.104 223.059,324.77 226.5,323.5 Z"/></g>
<g><path style="opacity:1" fill="#d0d0d0" d="M 250.5,323.5 C 252.833,323.5 255.167,323.5 257.5,323.5C 257.367,328.272 258.7,328.438 261.5,324C 263.833,323.333 266.167,323.333 268.5,324C 269.732,329.438 267.399,331.772 261.5,331C 259.951,332.214 258.785,333.714 258,335.5C 257.501,341.157 257.334,346.824 257.5,352.5C 255.167,352.5 252.833,352.5 250.5,352.5C 250.5,342.833 250.5,333.167 250.5,323.5 Z"/></g>
<g><path style="opacity:1" fill="#6c6c6c" d="M 275.5,316.5 C 275.5,319.167 275.5,321.833 275.5,324.5C 273.833,324.5 272.167,324.5 270.5,324.5C 271.568,323.566 272.901,323.232 274.5,323.5C 274.198,320.941 274.532,318.607 275.5,316.5 Z"/></g>
<g><path style="opacity:1" fill="#cfcfcf" d="M 295.5,323.5 C 297.833,323.5 300.167,323.5 302.5,323.5C 302.443,327.133 303.443,327.3 305.5,324C 310.229,322.744 314.229,323.911 317.5,327.5C 322.743,322.804 328.41,322.304 334.5,326C 335.46,327.419 336.293,328.919 337,330.5C 337.5,337.826 337.666,345.159 337.5,352.5C 335.167,352.5 332.833,352.5 330.5,352.5C 330.666,345.825 330.5,339.158 330,332.5C 326.528,329.582 323.528,329.915 321,333.5C 320.5,339.825 320.334,346.158 320.5,352.5C 317.833,352.5 315.167,352.5 312.5,352.5C 312.666,345.492 312.5,338.492 312,331.5C 308.475,329.81 305.475,330.476 303,333.5C 302.5,339.825 302.334,346.158 302.5,352.5C 300.167,352.5 297.833,352.5 295.5,352.5C 295.5,342.833 295.5,333.167 295.5,323.5 Z"/></g>
<g><path style="opacity:1" fill="#d0d0d0" d="M 351.5,323.5 C 364.03,322.365 370.03,328.031 369.5,340.5C 363.167,340.5 356.833,340.5 350.5,340.5C 351.56,346.095 354.893,347.929 360.5,346C 361.931,345.535 363.097,344.701 364,343.5C 365.5,345 367,346.5 368.5,348C 360.522,355.433 352.689,355.266 345,347.5C 340.084,337.392 342.251,329.392 351.5,323.5 Z"/></g>
<g><path style="opacity:1" fill="#d1d1d1" d="M 375.5,323.5 C 377.833,323.5 380.167,323.5 382.5,323.5C 382.628,326.774 383.961,326.941 386.5,324C 392.062,322.419 396.562,323.919 400,328.5C 401.435,336.389 401.935,344.389 401.5,352.5C 399.167,352.5 396.833,352.5 394.5,352.5C 394.666,346.158 394.5,339.825 394,333.5C 393.242,331.09 391.575,330.09 389,330.5C 386.333,330.167 384.333,331.167 383,333.5C 382.5,339.825 382.334,346.158 382.5,352.5C 380.167,352.5 377.833,352.5 375.5,352.5C 375.5,342.833 375.5,333.167 375.5,323.5 Z"/></g>
<g><path style="opacity:1" fill="#6c6c6c" d="M 410.5,316.5 C 410.5,319.167 410.5,321.833 410.5,324.5C 408.833,324.5 407.167,324.5 405.5,324.5C 406.568,323.566 407.901,323.232 409.5,323.5C 409.198,320.941 409.532,318.607 410.5,316.5 Z"/></g>
<g><path style="opacity:1" fill="#7a7a7a" d="M 195.5,325.5 C 195.44,326.043 195.107,326.376 194.5,326.5C 192.477,324.827 190.144,324.16 187.5,324.5C 187.5,337.833 187.5,351.167 187.5,364.5C 189.5,364.5 191.5,364.5 193.5,364.5C 193.166,359.063 193.499,354.396 194.5,350.5C 194.5,355.5 194.5,360.5 194.5,365.5C 191.833,365.5 189.167,365.5 186.5,365.5C 186.5,351.5 186.5,337.5 186.5,323.5C 189.855,323.091 192.855,323.758 195.5,325.5 Z"/></g>
<g><path style="opacity:1" fill="#0e0e0e" d="M 163.5,323.5 C 165.935,327.799 167.602,332.466 168.5,337.5C 165.102,337.82 161.768,337.487 158.5,336.5C 160.371,332.216 162.038,327.883 163.5,323.5 Z"/></g>
<g><path style="opacity:1" fill="#050505" d="M 353.5,329.5 C 358.709,328.396 361.709,330.396 362.5,335.5C 358.5,335.5 354.5,335.5 350.5,335.5C 350.615,333.053 351.615,331.053 353.5,329.5 Z"/></g>
<g><path style="opacity:1" fill="#0c0c0c" d="M 197.5,329.5 C 205.176,329.831 208.343,333.831 207,341.5C 205.287,346.038 202.12,347.538 197.5,346C 192.203,340.547 192.203,335.047 197.5,329.5 Z"/></g>
<g><path style="opacity:1" fill="#626262" d="M 270.5,329.5 C 272.167,329.5 273.833,329.5 275.5,329.5C 275.5,335.167 275.5,340.833 275.5,346.5C 274.512,341.36 274.179,336.026 274.5,330.5C 272.901,330.768 271.568,330.434 270.5,329.5 Z"/></g>
<g><path style="opacity:1" fill="#707070" d="M 282.5,323.5 C 284.833,323.5 287.167,323.5 289.5,323.5C 289.5,325.833 289.5,328.167 289.5,330.5C 287.167,330.5 284.833,330.5 282.5,330.5C 282.5,335.167 282.5,339.833 282.5,344.5C 281.513,339.695 281.179,334.695 281.5,329.5C 283.833,329.5 286.167,329.5 288.5,329.5C 288.5,327.833 288.5,326.167 288.5,324.5C 286.265,324.795 284.265,324.461 282.5,323.5 Z"/></g>
<g><path style="opacity:1" fill="#626262" d="M 405.5,329.5 C 407.167,329.5 408.833,329.5 410.5,329.5C 410.5,335.167 410.5,340.833 410.5,346.5C 409.512,341.36 409.179,336.026 409.5,330.5C 407.901,330.768 406.568,330.434 405.5,329.5 Z"/></g>
<g><path style="opacity:1" fill="#707070" d="M 417.5,323.5 C 419.833,323.5 422.167,323.5 424.5,323.5C 424.5,325.833 424.5,328.167 424.5,330.5C 422.167,330.5 419.833,330.5 417.5,330.5C 417.5,335.167 417.5,339.833 417.5,344.5C 416.513,339.695 416.179,334.695 416.5,329.5C 418.833,329.5 421.167,329.5 423.5,329.5C 423.5,327.833 423.5,326.167 423.5,324.5C 421.265,324.795 419.265,324.461 417.5,323.5 Z"/></g>
<g><path style="opacity:1" fill="#060606" d="M 85.5,334.5 C 89.6049,334.234 93.6049,334.734 97.5,336C 100.299,339.339 99.9661,342.339 96.5,345C 92.8484,345.499 89.1817,345.665 85.5,345.5C 85.5,341.833 85.5,338.167 85.5,334.5 Z"/></g>
<g><path style="opacity:1" fill="#111111" d="M 227.5,340.5 C 238.634,339.891 239.301,342.225 229.5,347.5C 225.225,346.152 224.559,343.819 227.5,340.5 Z"/></g>
</svg>
