<?xml version="1.0" encoding="UTF-8"?>
<!DOCTYPE svg PUBLIC "-//W3C//DTD SVG 1.1//EN" "http://www.w3.org/Graphics/SVG/1.1/DTD/svg11.dtd">
<svg xmlns="http://www.w3.org/2000/svg" version="1.1" width="5432px" height="2564px" style="shape-rendering:geometricPrecision; text-rendering:geometricPrecision; image-rendering:optimizeQuality; fill-rule:evenodd; clip-rule:evenodd" xmlns:xlink="http://www.w3.org/1999/xlink">
<g><path style="opacity:1" fill="#fefffe" d="M -0.5,-0.5 C 1810.17,-0.5 3620.83,-0.5 5431.5,-0.5C 5431.5,854.167 5431.5,1708.83 5431.5,2563.5C 3620.83,2563.5 1810.17,2563.5 -0.5,2563.5C -0.5,1708.83 -0.5,854.167 -0.5,-0.5 Z"/></g>
<g><path style="opacity:1" fill="#fef200" d="M 1391.5,923.5 C 1401.17,923.334 1410.84,923.5 1420.5,924C 1493.39,1092.65 1565.89,1261.49 1638,1430.5C 1644.73,1445.62 1651.73,1460.62 1659,1475.5C 1667.37,1489.85 1679.87,1497.69 1696.5,1499C 1704.13,1500.07 1711.8,1500.57 1719.5,1500.5C 1719.5,1509.5 1719.5,1518.5 1719.5,1527.5C 1643.84,1524.91 1568.17,1524.91 1492.5,1527.5C 1492.5,1518.5 1492.5,1509.5 1492.5,1500.5C 1514.65,1500.32 1536.65,1498.49 1558.5,1495C 1564.31,1492.36 1566.97,1487.86 1566.5,1481.5C 1564.92,1472.27 1562.42,1463.27 1559,1454.5C 1542,1411.17 1525,1367.83 1508,1324.5C 1467.57,1323.83 1427.07,1323.5 1386.5,1323.5C 1345.93,1323.5 1305.43,1323.83 1265,1324.5C 1248.08,1364.26 1231.75,1404.26 1216,1444.5C 1213.46,1452.44 1211.13,1460.44 1209,1468.5C 1207.23,1476.49 1208.73,1483.65 1213.5,1490C 1215.72,1491.28 1218.05,1492.28 1220.5,1493C 1240.37,1496.56 1260.37,1499.06 1280.5,1500.5C 1280.5,1509.5 1280.5,1518.5 1280.5,1527.5C 1214.5,1524.87 1148.5,1524.87 1082.5,1527.5C 1082.5,1518.5 1082.5,1509.5 1082.5,1500.5C 1098.75,1501.38 1114.75,1499.88 1130.5,1496C 1137.69,1491.81 1143.19,1485.98 1147,1478.5C 1165.15,1442.53 1182.48,1406.2 1199,1369.5C 1259.82,1232.85 1319.82,1095.85 1379,958.5C 1383.74,947.017 1387.91,935.35 1391.5,923.5 Z"/></g>
<g><path style="opacity:1" fill="#fef200" d="M 923.5,927.5 C 963.223,926.79 1002.89,927.79 1042.5,930.5C 1032.56,972.559 1027.89,1015.23 1028.5,1058.5C 1018.83,1058.5 1009.17,1058.5 999.5,1058.5C 998.683,1031.97 995.35,1005.81 989.5,980C 939.91,967.474 889.576,962.808 838.5,966C 816.795,967.003 795.128,968.503 773.5,970.5C 771.003,1003.45 769.503,1036.45 769,1069.5C 768.5,1114.5 768.333,1159.5 768.5,1204.5C 806.168,1204.67 843.835,1204.5 881.5,1204C 898.859,1203.43 916.192,1202.43 933.5,1201C 943.597,1200.23 950.097,1195.06 953,1185.5C 957.306,1167.05 960.139,1148.39 961.5,1129.5C 970.833,1129.5 980.167,1129.5 989.5,1129.5C 986.934,1195.47 985.934,1261.47 986.5,1327.5C 977.167,1327.5 967.833,1327.5 958.5,1327.5C 958.667,1310.83 958.5,1294.16 958,1277.5C 957.257,1265.52 952.424,1255.68 943.5,1248C 937.987,1246.03 932.321,1244.7 926.5,1244C 913.546,1242.4 900.546,1241.4 887.5,1241C 847.835,1240.5 808.168,1240.33 768.5,1240.5C 768.221,1304.84 768.721,1369.17 770,1433.5C 769.978,1451.61 772.644,1469.28 778,1486.5C 786.08,1494.62 795.914,1499.12 807.5,1500C 823.163,1500.5 838.83,1500.67 854.5,1500.5C 854.5,1509.5 854.5,1518.5 854.5,1527.5C 770.833,1524.84 687.167,1524.84 603.5,1527.5C 603.5,1518.5 603.5,1509.5 603.5,1500.5C 620.503,1500.67 637.503,1500.5 654.5,1500C 664.754,1499.26 673.587,1495.42 681,1488.5C 684.491,1480.89 686.491,1472.89 687,1464.5C 687.94,1455.52 688.607,1446.52 689,1437.5C 689.667,1298.5 689.667,1159.5 689,1020.5C 688.532,1006.02 686.866,991.685 684,977.5C 680.336,967.518 673.17,961.351 662.5,959C 642.953,956.106 623.286,954.939 603.5,955.5C 603.5,946.833 603.5,938.167 603.5,929.5C 710.345,932.333 817.012,931.666 923.5,927.5 Z"/></g>
<g><path style="opacity:1" fill="#fef200" d="M 83.5,928.5 C 127.327,929.764 171.16,930.764 215,931.5C 275.827,929.935 336.66,929.102 397.5,929C 423.886,930.009 448.886,936.342 472.5,948C 512.114,972.754 529.614,1008.59 525,1055.5C 521.472,1094.07 504.305,1124.9 473.5,1148C 446.992,1165.92 418.326,1179.58 387.5,1189C 419.038,1191.57 449.705,1198.24 479.5,1209C 524.626,1228.81 549.793,1263.31 555,1312.5C 559.632,1362.93 545.632,1407.26 513,1445.5C 467.817,1495.5 411.317,1522.67 343.5,1527C 301.325,1527.32 259.159,1526.82 217,1525.5C 186.155,1525.74 155.322,1526.41 124.5,1527.5C 124.5,1521.17 124.5,1514.83 124.5,1508.5C 136.822,1504.26 147.655,1497.59 157,1488.5C 160.191,1481.88 161.857,1474.88 162,1467.5C 162.82,1452.17 163.487,1436.84 164,1421.5C 164.167,1355.83 164.333,1290.17 164.5,1224.5C 164.633,1152.16 164.133,1079.82 163,1007.5C 162.63,995.196 160.63,983.196 157,971.5C 149.262,962.548 139.429,957.715 127.5,957C 112.855,955.846 98.1888,955.346 83.5,955.5C 83.5,946.5 83.5,937.5 83.5,928.5 Z"/></g>
<g><path style="opacity:1" fill="#fefffe" d="M 290.5,963.5 C 313.614,962.691 336.614,963.858 359.5,967C 413.618,977.787 440.618,1010.79 440.5,1066C 441.174,1111.03 421.508,1143.36 381.5,1163C 362.868,1170.49 343.535,1175.16 323.5,1177C 296.856,1178.38 270.19,1178.88 243.5,1178.5C 243.581,1108.47 244.914,1038.47 247.5,968.5C 261.964,966.732 276.298,965.066 290.5,963.5 Z"/></g>
<g><path style="opacity:1" fill="#fef200" d="M 3176.5,993.5 C 3180.93,994.743 3184.76,997.077 3188,1000.5C 3185.95,1052.47 3184.45,1104.47 3183.5,1156.5C 3222.19,1156.8 3260.85,1156.14 3299.5,1154.5C 3298.17,1168.5 3296.83,1182.5 3295.5,1196.5C 3257.83,1196.5 3220.17,1196.5 3182.5,1196.5C 3182.2,1268.84 3182.7,1341.17 3184,1413.5C 3184.11,1427.14 3186.11,1440.47 3190,1453.5C 3198.89,1473.53 3214.39,1483.19 3236.5,1482.5C 3254.03,1482.07 3269.36,1476.07 3282.5,1464.5C 3286.85,1468.85 3290.85,1473.51 3294.5,1478.5C 3281.17,1494.17 3267.83,1509.83 3254.5,1525.5C 3228.27,1535.8 3201.27,1538.3 3173.5,1533C 3135.14,1524.32 3114.31,1500.48 3111,1461.5C 3111.3,1374.84 3111.47,1288.17 3111.5,1201.5C 3089.14,1201.44 3066.81,1202.11 3044.5,1203.5C 3044.5,1197.5 3044.5,1191.5 3044.5,1185.5C 3067.16,1177.84 3089.16,1168.51 3110.5,1157.5C 3111.17,1113.49 3111.17,1069.49 3110.5,1025.5C 3133.36,1016.4 3155.36,1005.74 3176.5,993.5 Z"/></g>
<g><path style="opacity:1" fill="#fef200" d="M 5133.5,993.5 C 5137.93,994.743 5141.76,997.077 5145,1000.5C 5142.95,1052.47 5141.45,1104.47 5140.5,1156.5C 5179.19,1156.8 5217.85,1156.14 5256.5,1154.5C 5255.17,1168.5 5253.83,1182.5 5252.5,1196.5C 5214.83,1196.5 5177.17,1196.5 5139.5,1196.5C 5139.2,1268.84 5139.7,1341.17 5141,1413.5C 5141.11,1427.14 5143.11,1440.47 5147,1453.5C 5155.89,1473.53 5171.39,1483.19 5193.5,1482.5C 5211.03,1482.07 5226.36,1476.07 5239.5,1464.5C 5243.85,1468.85 5247.85,1473.51 5251.5,1478.5C 5238.17,1494.17 5224.83,1509.83 5211.5,1525.5C 5185.27,1535.8 5158.27,1538.3 5130.5,1533C 5092.14,1524.32 5071.31,1500.48 5068,1461.5C 5068.3,1374.84 5068.47,1288.17 5068.5,1201.5C 5046.14,1201.44 5023.81,1202.11 5001.5,1203.5C 5001.5,1197.5 5001.5,1191.5 5001.5,1185.5C 5024.16,1177.84 5046.16,1168.51 5067.5,1157.5C 5068.17,1113.49 5068.17,1069.49 5067.5,1025.5C 5090.36,1016.4 5112.36,1005.74 5133.5,993.5 Z"/></g>
<g><path style="opacity:1" fill="#fefffe" d="M 1386.5,1038.5 C 1421.91,1122.21 1457.24,1206.04 1492.5,1290C 1421.83,1290.67 1351.17,1290.67 1280.5,1290C 1315.98,1206.21 1351.31,1122.38 1386.5,1038.5 Z"/></g>
<g><path style="opacity:1" fill="#fef200" d="M 1892.5,1119.5 C 1897.1,1118.38 1899.94,1120.05 1901,1124.5C 1900.87,1151.5 1900.87,1178.5 1901,1205.5C 1926.62,1181.54 1953.12,1158.71 1980.5,1137C 1997.25,1127.75 2015.25,1122.75 2034.5,1122C 2075.51,1117.6 2113.85,1125.6 2149.5,1146C 2198.8,1179.92 2222.8,1227.09 2221.5,1287.5C 2221.44,1335.15 2208.94,1379.15 2184,1419.5C 2179.33,1425.5 2174.67,1431.5 2170,1437.5C 2163.53,1442.97 2157.36,1448.8 2151.5,1455C 2119.62,1474.88 2088.29,1495.55 2057.5,1517C 2028.32,1534.05 1996.99,1539.72 1963.5,1534C 1941.4,1529.97 1920.23,1523.13 1900,1513.5C 1899.9,1564.5 1900.24,1615.5 1901,1666.5C 1901.33,1679.52 1902,1692.52 1903,1705.5C 1904.6,1719.76 1912.43,1728.26 1926.5,1731C 1942.46,1732.37 1958.46,1732.87 1974.5,1732.5C 1974.5,1740.5 1974.5,1748.5 1974.5,1756.5C 1900.83,1753.89 1827.17,1753.89 1753.5,1756.5C 1753.5,1748.5 1753.5,1740.5 1753.5,1732.5C 1768.84,1732.67 1784.17,1732.5 1799.5,1732C 1818.53,1730.13 1827.36,1719.63 1826,1700.5C 1826.93,1687.18 1827.6,1673.85 1828,1660.5C 1828.67,1523.5 1828.67,1386.5 1828,1249.5C 1827.81,1231.35 1826.14,1213.35 1823,1195.5C 1821.05,1187.89 1816.22,1183.39 1808.5,1182C 1790.23,1179.95 1771.9,1179.11 1753.5,1179.5C 1753.5,1170.83 1753.5,1162.17 1753.5,1153.5C 1792.35,1149.83 1830.35,1142 1867.5,1130C 1876.14,1126.96 1884.47,1123.46 1892.5,1119.5 Z"/></g>
<g><path style="opacity:1" fill="#fef200" d="M 2834.5,1119.5 C 2837.52,1119.34 2840.52,1119.5 2843.5,1120C 2844.7,1120.9 2845.53,1122.07 2846,1123.5C 2846.13,1154.17 2846.13,1184.83 2846,1215.5C 2863.5,1198.01 2879.5,1179.34 2894,1159.5C 2903.95,1149.21 2914.79,1140.04 2926.5,1132C 2945.06,1122.36 2964.72,1119.02 2985.5,1122C 2992.46,1122.53 2999.13,1124.19 3005.5,1127C 3008.66,1129.16 3010.33,1132.16 3010.5,1136C 3004.8,1168.25 3002.13,1200.75 3002.5,1233.5C 2995.83,1233.67 2989.16,1233.5 2982.5,1233C 2965.89,1198.45 2939.22,1187.45 2902.5,1200C 2876.49,1211.69 2860.32,1231.53 2854,1259.5C 2851.31,1273.37 2849.65,1287.37 2849,1301.5C 2847.45,1343.15 2847.11,1384.82 2848,1426.5C 2848.56,1445.94 2850.23,1465.27 2853,1484.5C 2854.03,1488.72 2856.19,1492.22 2859.5,1495C 2866.13,1498.41 2873.13,1500.74 2880.5,1502C 2897.47,1503.38 2914.47,1503.88 2931.5,1503.5C 2931.5,1511.5 2931.5,1519.5 2931.5,1527.5C 2854.17,1524.86 2776.83,1524.86 2699.5,1527.5C 2699.5,1519.5 2699.5,1511.5 2699.5,1503.5C 2717.56,1502.77 2735.56,1501.27 2753.5,1499C 2760.82,1498.1 2766.32,1494.6 2770,1488.5C 2773.06,1476.36 2774.73,1464.03 2775,1451.5C 2777.84,1376.84 2778.17,1302.18 2776,1227.5C 2775.47,1214.59 2773.47,1201.93 2770,1189.5C 2764.69,1183.26 2757.86,1179.76 2749.5,1179C 2732.86,1177.76 2716.19,1177.26 2699.5,1177.5C 2699.5,1169.5 2699.5,1161.5 2699.5,1153.5C 2746.67,1150.13 2791.67,1138.79 2834.5,1119.5 Z"/></g>
<g><path style="opacity:1" fill="#fef200" d="M 3461.5,1119.5 C 3463.86,1119.34 3466.19,1119.5 3468.5,1120C 3469.7,1120.9 3470.53,1122.07 3471,1123.5C 3470.61,1147.49 3470.61,1171.49 3471,1195.5C 3492.24,1175.59 3514.07,1156.42 3536.5,1138C 3556.89,1126.24 3578.89,1120.74 3602.5,1121.5C 3633.03,1120.51 3660.69,1128.68 3685.5,1146C 3702.39,1161.55 3716.23,1179.38 3727,1199.5C 3745.87,1181.63 3765.03,1164.13 3784.5,1147C 3819.9,1123.32 3858.57,1115.99 3900.5,1125C 3958.58,1140.74 3990.08,1178.58 3995,1238.5C 3994.92,1313.17 3994.92,1387.83 3995,1462.5C 3995.4,1471.32 3996.74,1479.99 3999,1488.5C 4000.06,1491.56 4001.89,1494.06 4004.5,1496C 4008.96,1498.23 4013.63,1499.9 4018.5,1501C 4033.77,1502.94 4049.1,1503.77 4064.5,1503.5C 4064.5,1511.5 4064.5,1519.5 4064.5,1527.5C 4015.16,1524.99 3965.83,1524.99 3916.5,1527.5C 3920.2,1448.54 3921.37,1369.54 3920,1290.5C 3919.56,1272.71 3917.89,1255.05 3915,1237.5C 3907.58,1202.41 3886.41,1180.91 3851.5,1173C 3809.34,1165.85 3774.84,1178.68 3748,1211.5C 3742.36,1220.12 3738.36,1229.45 3736,1239.5C 3734.23,1255.45 3733.23,1271.45 3733,1287.5C 3731.77,1349.84 3731.77,1412.18 3733,1474.5C 3733.17,1481.69 3735.67,1487.86 3740.5,1493C 3743.99,1494.79 3747.66,1496.12 3751.5,1497C 3768.76,1499.82 3786.09,1501.99 3803.5,1503.5C 3803.5,1511.5 3803.5,1519.5 3803.5,1527.5C 3731.83,1524.86 3660.17,1524.86 3588.5,1527.5C 3588.5,1519.5 3588.5,1511.5 3588.5,1503.5C 3602.84,1503.67 3617.17,1503.5 3631.5,1503C 3644.2,1502.91 3652.04,1496.74 3655,1484.5C 3656.82,1474.58 3657.82,1464.58 3658,1454.5C 3660.34,1396.19 3661.01,1337.85 3660,1279.5C 3659.38,1263.65 3657.38,1247.98 3654,1232.5C 3643,1198.51 3619.83,1178.34 3584.5,1172C 3545.23,1167.97 3512.73,1180.81 3487,1210.5C 3475.35,1225.44 3469.69,1242.44 3470,1261.5C 3467.54,1322.81 3467.21,1384.14 3469,1445.5C 3469,1458.59 3470,1471.59 3472,1484.5C 3473.26,1490.89 3477.1,1494.72 3483.5,1496C 3502.01,1499.65 3520.68,1502.15 3539.5,1503.5C 3539.5,1511.5 3539.5,1519.5 3539.5,1527.5C 3468.84,1524.88 3398.17,1524.88 3327.5,1527.5C 3327.5,1519.5 3327.5,1511.5 3327.5,1503.5C 3342.17,1503.67 3356.84,1503.5 3371.5,1503C 3381.16,1501.98 3388,1497.15 3392,1488.5C 3394.57,1469.93 3395.9,1451.26 3396,1432.5C 3396.67,1359.17 3396.67,1285.83 3396,1212.5C 3395.86,1205.04 3394.86,1197.71 3393,1190.5C 3391.27,1184.11 3387.11,1180.61 3380.5,1180C 3362.88,1178.2 3345.22,1177.37 3327.5,1177.5C 3327.5,1169.5 3327.5,1161.5 3327.5,1153.5C 3373.98,1148.71 3418.65,1137.38 3461.5,1119.5 Z"/></g>
<g><path style="opacity:1" fill="#fef200" d="M 4624.5,1119.5 C 4630.71,1118.01 4634.21,1120.34 4635,1126.5C 4634.45,1151.15 4634.45,1175.82 4635,1200.5C 4658.91,1178.59 4683.41,1157.42 4708.5,1137C 4722.26,1129.56 4736.93,1124.89 4752.5,1123C 4789,1117.86 4823.67,1123.53 4856.5,1140C 4893.2,1161.44 4912.7,1193.6 4915,1236.5C 4916.08,1256.48 4916.58,1276.48 4916.5,1296.5C 4915.62,1350.17 4915.45,1403.83 4916,1457.5C 4916.34,1466.9 4917.34,1476.24 4919,1485.5C 4922.72,1495.46 4929.89,1501.29 4940.5,1503C 4954.16,1503.5 4967.83,1503.67 4981.5,1503.5C 4981.5,1511.5 4981.5,1519.5 4981.5,1527.5C 4933.16,1524.88 4884.83,1524.88 4836.5,1527.5C 4842.83,1443.28 4844.99,1358.95 4843,1274.5C 4842.95,1253.22 4837.95,1233.22 4828,1214.5C 4807.48,1186.74 4779.81,1173.41 4745,1174.5C 4701.84,1174.08 4668.5,1191.74 4645,1227.5C 4639.29,1241.58 4636.62,1256.25 4637,1271.5C 4636.33,1332.5 4636.33,1393.5 4637,1454.5C 4637.16,1464.88 4637.83,1475.21 4639,1485.5C 4641.52,1493.68 4647.02,1498.85 4655.5,1501C 4658.47,1501.79 4661.47,1502.46 4664.5,1503C 4678.83,1503.5 4693.16,1503.67 4707.5,1503.5C 4707.5,1511.5 4707.5,1519.5 4707.5,1527.5C 4635.83,1524.88 4564.16,1524.88 4492.5,1527.5C 4492.5,1519.5 4492.5,1511.5 4492.5,1503.5C 4507.5,1503.67 4522.5,1503.5 4537.5,1503C 4554.94,1500.98 4563.11,1491.15 4562,1473.5C 4562.96,1457.85 4563.62,1442.18 4564,1426.5C 4564.92,1350.82 4564.59,1275.16 4563,1199.5C 4563.33,1188.95 4558.5,1182.45 4548.5,1180C 4529.89,1178.04 4511.23,1177.21 4492.5,1177.5C 4492.5,1169.5 4492.5,1161.5 4492.5,1153.5C 4538.48,1149.34 4582.48,1138.01 4624.5,1119.5 Z"/></g>
<g><path style="opacity:1" fill="#fef200" d="M 2450.5,1121.5 C 2481.69,1119.17 2511.69,1124.01 2540.5,1136C 2580.9,1156.28 2602.07,1189.11 2604,1234.5C 2605.54,1257.81 2606.54,1281.14 2607,1304.5C 2607.69,1355.51 2608.69,1406.51 2610,1457.5C 2610.3,1467.91 2611.3,1478.24 2613,1488.5C 2615.47,1493.99 2619.64,1497.49 2625.5,1499C 2639.16,1499.5 2652.83,1499.67 2666.5,1499.5C 2666.5,1508.83 2666.5,1518.17 2666.5,1527.5C 2623.5,1524.88 2580.5,1524.88 2537.5,1527.5C 2537.67,1502.83 2537.5,1478.16 2537,1453.5C 2505.07,1478.77 2472.57,1503.27 2439.5,1527C 2431.62,1531.07 2423.29,1533.74 2414.5,1535C 2384.41,1538.55 2355.74,1533.89 2328.5,1521C 2297.89,1500.95 2283.22,1472.45 2284.5,1435.5C 2285.6,1377.27 2312.94,1337.1 2366.5,1315C 2422.35,1298.86 2479.02,1286.36 2536.5,1277.5C 2536,1197.83 2496,1160.33 2416.5,1165C 2396.41,1167.14 2377.91,1173.64 2361,1184.5C 2353.56,1203.06 2346.39,1221.72 2339.5,1240.5C 2331.5,1240.21 2323.66,1238.54 2316,1235.5C 2315.83,1216.26 2315.33,1197.09 2314.5,1178C 2340.02,1163.16 2366.02,1149.16 2392.5,1136C 2411.25,1128.31 2430.59,1123.48 2450.5,1121.5 Z"/></g>
<g><path style="opacity:1" fill="#fef200" d="M 4282.5,1121.5 C 4326.41,1117.63 4366.08,1128.47 4401.5,1154C 4435.5,1183.17 4453.67,1220.34 4456,1265.5C 4456.67,1280.83 4456.67,1296.17 4456,1311.5C 4431.92,1317.66 4407.42,1321.16 4382.5,1322C 4312.84,1323.24 4243.18,1323.91 4173.5,1324C 4174.41,1354.91 4180.58,1384.74 4192,1413.5C 4214.56,1460.21 4251.73,1486.38 4303.5,1492C 4352.69,1495.43 4397.36,1482.93 4437.5,1454.5C 4439.52,1456.36 4441.69,1458.02 4444,1459.5C 4444.67,1460.83 4444.67,1462.17 4444,1463.5C 4439.78,1474.65 4435.28,1485.65 4430.5,1496.5C 4365.2,1533.71 4295.87,1544.21 4222.5,1528C 4157.64,1507.13 4116.8,1463.63 4100,1397.5C 4091.44,1355.52 4091.44,1313.52 4100,1271.5C 4106.18,1244.61 4117.18,1219.94 4133,1197.5C 4164.42,1164.35 4202.26,1141.18 4246.5,1128C 4258.53,1125.09 4270.53,1122.92 4282.5,1121.5 Z"/></g>
<g><path style="opacity:1" fill="#fefffe" d="M 4264.5,1151.5 C 4333.68,1147.85 4371.51,1180.51 4378,1249.5C 4378.5,1263.5 4378.67,1277.5 4378.5,1291.5C 4310.5,1294.16 4242.5,1293.99 4174.5,1291C 4174.73,1264.14 4179.23,1237.97 4188,1212.5C 4202.48,1178.17 4227.98,1157.83 4264.5,1151.5 Z"/></g>
<g><path style="opacity:1" fill="#fefffe" d="M 2003.5,1174.5 C 2053.02,1170.85 2092.85,1188.52 2123,1227.5C 2137.47,1250.03 2145.8,1274.7 2148,1301.5C 2154.12,1359.07 2139.45,1410.4 2104,1455.5C 2073.62,1485.24 2037.12,1497.4 1994.5,1492C 1963.05,1487.44 1936.05,1474.11 1913.5,1452C 1909.37,1446.87 1904.87,1442.03 1900,1437.5C 1899.2,1380.16 1899.54,1322.83 1901,1265.5C 1900.98,1248.56 1906.64,1233.9 1918,1221.5C 1941.32,1196.26 1969.82,1180.59 2003.5,1174.5 Z"/></g>
<g><path style="opacity:1" fill="#fefffe" d="M 243.5,1212.5 C 271.835,1212.33 300.169,1212.5 328.5,1213C 426.288,1215.79 472.122,1265.95 466,1363.5C 459.321,1427.84 424.821,1468.68 362.5,1486C 337.422,1491.2 312.088,1492.87 286.5,1491C 272.457,1489.83 258.457,1488.33 244.5,1486.5C 244.985,1475.17 245.318,1463.84 245.5,1452.5C 243.9,1372.51 243.233,1292.51 243.5,1212.5 Z"/></g>
<g><path style="opacity:1" fill="#fefffe" d="M 2532.5,1302.5 C 2533.83,1302.5 2535.17,1302.5 2536.5,1302.5C 2536.67,1340.83 2536.5,1379.17 2536,1417.5C 2520.71,1437.79 2502.54,1454.96 2481.5,1469C 2459.25,1482.23 2435.25,1487.56 2409.5,1485C 2375.09,1476.4 2357.76,1454.24 2357.5,1418.5C 2356.86,1379.93 2374.19,1353.09 2409.5,1338C 2449.74,1323.19 2490.74,1311.36 2532.5,1302.5 Z"/></g>
</svg>
